HIERARCHY
ROOT Hips
{
	OFFSET 0.000000 0.000000 0.000000
	CHANNELS 6 Xposition Yposition Zposition Xrotation Yrotation Zrotation
	JOINT LeftUpLeg_virtual
	{
		OFFSET 0.000000 0.000000 0.000000
		CHANNELS 3 Xrotation Yrotation Zrotation
		JOINT LeftUpLeg
		{
			OFFSET 15.427100 -6.655098 0.678600
			CHANNELS 3 Xrotation Yrotation Zrotation
			JOINT LeftLeg
			{
				OFFSET 4.081073 -39.591068 13.024000
				CHANNELS 3 Xrotation Yrotation Zrotation
				JOINT LeftFoot
				{
					OFFSET -4.081074 -37.707932 -15.979700
					CHANNELS 3 Xrotation Yrotation Zrotation
					JOINT LeftToeBase
					{
						OFFSET 5.346399 -15.068900 20.645000
						CHANNELS 3 Xrotation Yrotation Zrotation
						JOINT LeftToe_End
						{
							OFFSET 2.754700 0.931300 11.300900
							CHANNELS 3 Xrotation Yrotation Zrotation
							End Site
							{
								OFFSET 0 0 0
							}
						}
					}
				}
			}
		}
	}
	JOINT RightUpLeg_virtual
	{
		OFFSET 0.000000 0.000000 0.000000
		CHANNELS 3 Xrotation Yrotation Zrotation
		JOINT RightUpLeg
		{
			OFFSET -15.569500 -6.655098 0.678600
			CHANNELS 3 Xrotation Yrotation Zrotation
			JOINT RightLeg
			{
				OFFSET -4.081825 -39.591045 13.023800
				CHANNELS 3 Xrotation Yrotation Zrotation
				JOINT RightFoot
				{
					OFFSET 4.081824 -37.707954 -15.979600
					CHANNELS 3 Xrotation Yrotation Zrotation
					JOINT RightToeBase
					{
						OFFSET -5.346400 -15.068900 20.645000
						CHANNELS 3 Xrotation Yrotation Zrotation
						JOINT RightToe_End
						{
							OFFSET -2.754700 0.931300 11.300900
							CHANNELS 3 Xrotation Yrotation Zrotation
							End Site
							{
								OFFSET 0 0 0
							}
						}
					}
				}
			}
		}
	}
	JOINT Spine_virtual
	{
		OFFSET 0.000000 0.000000 0.000000
		CHANNELS 3 Xrotation Yrotation Zrotation
		JOINT Spine
		{
			OFFSET -0.279200 12.230698 -2.892100
			CHANNELS 3 Xrotation Yrotation Zrotation
			JOINT Spine1
			{
				OFFSET -0.232667 10.192268 -1.242267
				CHANNELS 3 Xrotation Yrotation Zrotation
				JOINT Spine1_split
				{
					OFFSET -0.232667 10.192268 -1.242267
					CHANNELS 3 Xrotation Yrotation Zrotation
					JOINT Spine2
					{
						OFFSET -0.232667 10.192268 -1.242267
						CHANNELS 3 Xrotation Yrotation Zrotation
						JOINT Neck_virtual
						{
							OFFSET 0.000000 0.000000 0.000000
							CHANNELS 3 Xrotation Yrotation Zrotation
							JOINT Neck
							{
								OFFSET -0.418800 17.814194 8.416900
								CHANNELS 3 Xrotation Yrotation Zrotation
								JOINT Head
								{
									OFFSET 0.000000 7.031097 3.806800
									CHANNELS 3 Xrotation Yrotation Zrotation
									JOINT HeadTop_End
									{
										OFFSET 0.000000 24.646606 12.978600
										CHANNELS 3 Xrotation Yrotation Zrotation
										End Site
										{
											OFFSET 0 0 0
										}
									}
								}
							}
						}
						JOINT LeftShoulder_virtual
						{
							OFFSET 0.000000 0.000000 0.000000
							CHANNELS 3 Xrotation Yrotation Zrotation
							JOINT LeftShoulder
							{
								OFFSET 8.476499 7.247704 -3.868750
								CHANNELS 3 Xrotation Yrotation Zrotation
								JOINT LeftShoulder_split
								{
									OFFSET 8.476499 7.247704 -3.868750
									CHANNELS 3 Xrotation Yrotation Zrotation
									JOINT LeftArm
									{
										OFFSET 9.308998 -2.777710 0.208600
										CHANNELS 3 Xrotation Yrotation Zrotation
										JOINT LeftForeArm
										{
											OFFSET 29.972298 0.000000 0.000000
											CHANNELS 3 Xrotation Yrotation Zrotation
											JOINT LeftHand
											{
												OFFSET 26.026505 0.000000 0.000000
												CHANNELS 3 Xrotation Yrotation Zrotation
												End Site
												{
													OFFSET 0 0 0
												}
											}
										}
									}
								}
							}
						}
						JOINT RightShoulder_virtual
						{
							OFFSET 0.000000 0.000000 0.000000
							CHANNELS 3 Xrotation Yrotation Zrotation
							JOINT RightShoulder
							{
								OFFSET -7.570500 7.247704 -3.868750
								CHANNELS 3 Xrotation Yrotation Zrotation
								JOINT RightShoulder_split
								{
									OFFSET -7.570500 7.247704 -3.868750
									CHANNELS 3 Xrotation Yrotation Zrotation
									JOINT RightArm
									{
										OFFSET -9.308998 -2.777710 0.208500
										CHANNELS 3 Xrotation Yrotation Zrotation
										JOINT RightForeArm
										{
											OFFSET -29.972300 0.000000 0.000000
											CHANNELS 3 Xrotation Yrotation Zrotation
											JOINT RightHand
											{
												OFFSET -26.026505 0.000000 0.000000
												CHANNELS 3 Xrotation Yrotation Zrotation
												End Site
												{
													OFFSET 0 0 0
												}
											}
										}
									}
								}
							}
						}
					}
				}
			}
		}
	}
}
MOTION
Frames: 6
Frame Time: 0.03333333
0.077983 108.005219 3.996346 0.000000 0.000000 0.000000 -87.413430 -6.506168 -0.924490 1.172497 22.948797 13.604798 -2.681336 0.149973 3.579931 16.294717 27.732025 -20.852928 -3.497627 -0.216785 0.588469 0.000000 0.000000 0.000000 -89.679878 -3.342288 0.809460 -0.741086 -24.069653 -18.155176 0.606089 -1.865458 -4.143987 27.092212 -31.215665 29.943201 -11.417090 0.655140 -1.771823 0.000000 0.000000 0.000000 -87.245100 -6.936763 -2.789451 0.904663 -0.420302 -0.003309 -1.217350 0.270774 -0.221370 0.714403 0.785957 -0.327131 0.000000 0.000000 0.000000 -1.324190 0.351659 -0.244485 -6.185699 3.946183 -8.401442 5.786483 8.623201 -12.946163 0.000000 0.000000 0.000000 -0.380896 0.373199 -0.098739 0.470541 -6.013301 -0.823686 -0.350101 1.760978 -2.782598 44.246269 -42.113416 -32.581372 5.595498 -86.378957 5.003952 0.000000 0.000000 0.000000 -0.208536 0.666305 -0.486828 0.422300 0.652492 2.621451 7.500093 7.881593 -0.966255 -4.735832 1.805368 81.024977 -179.281333 54.969875 -179.821614 0.000000 0.000000 0.000000 
0.094140 107.994507 3.987728 0.000000 0.000000 0.000000 -87.429010 -6.529482 -0.920240 1.200999 22.902637 13.575113 -2.682144 0.119593 3.578342 16.314619 27.721276 -20.856201 -3.509660 -0.218998 0.572080 0.000000 0.000000 0.000000 -89.678608 -3.347769 0.828233 -0.778642 -24.069141 -18.176431 0.639739 -1.882530 -4.171176 27.096607 -31.251011 29.948153 -11.351497 0.655680 -1.777729 0.000000 0.000000 0.000000 -87.261800 -6.947551 -2.788511 0.909803 -0.421902 0.009092 -1.220219 0.273453 -0.221006 0.721529 0.781514 -0.318123 0.000000 0.000000 0.000000 -1.332597 0.359442 -0.249833 -6.165334 3.996621 -8.401864 6.356330 8.781500 -13.319027 0.000000 0.000000 0.000000 -0.369416 0.369629 -0.096823 0.460389 -6.035269 -0.873889 -0.351880 1.772431 -2.682337 44.205674 -42.120861 -32.661698 5.513176 -86.349014 4.928690 0.000000 0.000000 0.000000 -0.200640 0.670441 -0.487958 0.428925 0.662494 2.643810 7.496834 7.895693 -0.972803 -4.697206 1.784875 80.930099 -179.278437 54.907358 -179.812188 0.000000 0.000000 0.000000 
0.111573 107.978912 3.973667 0.000000 0.000000 0.000000 -87.441448 -6.558981 -0.922095 1.218759 22.850903 13.544961 -2.676254 0.087378 3.578604 16.329461 27.709956 -20.860504 -3.520849 -0.221811 0.556153 0.000000 0.000000 0.000000 -89.675657 -3.364774 0.837517 -0.822215 -24.072114 -18.193064 0.664211 -1.899554 -4.196329 27.095075 -31.287423 29.947596 -11.288339 0.655254 -1.781519 0.000000 0.000000 0.000000 -87.273357 -6.964456 -2.787707 0.908380 -0.420577 0.026166 -1.226277 0.280118 -0.221268 0.727964 0.794474 -0.297635 0.000000 0.000000 0.000000 -1.348732 0.368824 -0.253660 -6.139573 4.068936 -8.414067 7.111375 8.968489 -13.824134 0.000000 0.000000 0.000000 -0.360957 0.369246 -0.091700 0.446001 -6.041515 -0.934044 -0.348230 1.773911 -2.589475 44.186191 -42.136482 -32.689671 5.334794 -86.325388 4.756405 0.000000 0.000000 0.000000 -0.195236 0.675158 -0.492460 0.431487 0.629273 2.654761 7.516885 7.929971 -0.973363 -4.655813 1.764978 80.842782 -179.266361 54.831314 -179.818595 0.000000 0.000000 0.000000 
0.128666 107.961304 3.953522 0.000000 0.000000 0.000000 -87.449207 -6.590613 -0.930067 1.223774 22.797879 13.517500 -2.666124 0.053843 3.580615 16.339455 27.698244 -20.868473 -3.531421 -0.225028 0.541760 0.000000 0.000000 0.000000 -89.669531 -3.389122 0.837681 -0.867045 -24.080477 -18.204126 0.672292 -1.915842 -4.216875 27.090899 -31.318729 29.943986 -11.231803 0.654082 -1.784132 0.000000 0.000000 0.000000 -87.277851 -6.986689 -2.789812 0.899967 -0.418091 0.047049 -1.234094 0.287630 -0.221507 0.727088 0.816381 -0.277225 0.000000 0.000000 0.000000 -1.370042 0.378044 -0.255002 -6.126832 4.153974 -8.428090 7.943928 9.145721 -14.394156 0.000000 0.000000 0.000000 -0.357001 0.370849 -0.084007 0.430479 -6.030811 -0.997901 -0.339912 1.766358 -2.516634 44.194797 -42.160599 -32.673040 5.066432 -86.304563 4.492472 0.000000 0.000000 0.000000 -0.193126 0.678721 -0.499140 0.430499 0.557243 2.651424 7.553768 7.968210 -0.967740 -4.621103 1.748984 80.784103 -179.246662 54.764300 -179.839673 0.000000 0.000000 0.000000 
0.143516 107.946060 3.932320 0.000000 0.000000 0.000000 -87.451331 -6.622182 -0.944952 1.215729 22.749135 13.496645 -2.653272 0.022464 3.583860 16.348828 27.686395 -20.882735 -3.543745 -0.228477 0.530024 0.000000 0.000000 0.000000 -89.660030 -3.416584 0.828319 -0.905333 -24.094952 -18.206832 0.657420 -1.932324 -4.231019 27.086326 -31.341542 29.938495 -11.184363 0.652655 -1.786785 0.000000 0.000000 0.000000 -87.273732 -7.012408 -2.797556 0.885830 -0.414451 0.069948 -1.241637 0.293544 -0.220883 0.726689 0.851501 -0.257468 0.000000 0.000000 0.000000 -1.395747 0.385003 -0.252528 -6.145333 4.235837 -8.437452 8.747141 9.279059 -14.945538 0.000000 0.000000 0.000000 -0.358584 0.373315 -0.074606 0.417108 -6.005889 -1.056749 -0.329556 1.747359 -2.468217 44.232209 -42.193999 -32.625751 4.728078 -86.276846 4.157680 0.000000 0.000000 0.000000 -0.194489 0.680429 -0.506339 0.426010 0.455501 2.635969 7.596577 8.002005 -0.950654 -4.599277 1.747898 80.760164 -179.220899 54.724070 -179.872335 0.000000 0.000000 0.000000 
0.155318 107.935287 3.912270 0.000000 0.000000 0.000000 -87.448141 -6.648569 -0.963741 1.196625 22.711573 13.484762 -2.640651 -0.002857 3.587060 16.361395 27.675947 -20.902696 -3.559735 -0.232067 0.521685 0.000000 0.000000 0.000000 -89.647073 -3.442338 0.811605 -0.931372 -24.114340 -18.200236 0.621875 -1.949531 -4.237477 27.080954 -31.356002 29.930162 -11.145778 0.651602 -1.790632 0.000000 0.000000 0.000000 -87.261349 -7.038805 -2.810810 0.871917 -0.410336 0.092901 -1.247058 0.296976 -0.218968 0.726010 0.898004 -0.244109 0.000000 0.000000 0.000000 -1.422565 0.389736 -0.246855 -6.197885 4.303189 -8.436113 9.415313 9.345406 -15.406388 0.000000 0.000000 0.000000 -0.366219 0.376237 -0.064315 0.408408 -5.968946 -1.107206 -0.311147 1.713522 -2.447671 44.293910 -42.233498 -32.562732 4.370105 -86.232668 3.801530 0.000000 0.000000 0.000000 -0.198521 0.681121 -0.512543 0.420186 0.339720 2.611801 7.635679 8.023229 -0.919687 -4.593574 1.766508 80.768025 -179.191638 54.705263 -179.911267 0.000000 0.000000 0.000000 
